<svg width="1441" height="800" viewBox="0 0 1441 800" fill="none" xmlns="http://www.w3.org/2000/svg">
<path d="M458.026 425.608H51.6334C49.2914 425.608 47.3928 427.507 47.3928 429.849V441.349C47.3928 443.691 49.2914 445.59 51.6334 445.59H458.026C460.368 445.59 462.267 443.691 462.267 441.349V429.849C462.267 427.507 460.368 425.608 458.026 425.608Z" fill="#87CBF8"/>
<path d="M472 711.215V314.241C472 311.899 470.101 310 467.759 310H456.259C453.917 310 452.019 311.899 452.019 314.241V711.215C452.019 713.557 453.917 715.456 456.259 715.456H467.759C470.101 715.456 472 713.557 472 711.215Z" fill="#87CBF8"/>
<path d="M61.9812 711.215L61.9812 314.241C61.9812 311.899 60.0826 310 57.7406 310H46.2405C43.8985 310 42 311.899 42 314.241L42 711.215C42 713.557 43.8985 715.456 46.2405 715.456H57.7406C60.0826 715.456 61.9812 713.557 61.9812 711.215Z" fill="#87CBF8"/>
<path d="M458.026 597.381H51.6334C49.2914 597.381 47.3928 599.28 47.3928 601.622V613.122C47.3928 615.464 49.2914 617.363 51.6334 617.363H458.026C460.368 617.363 462.267 615.464 462.267 613.122V601.622C462.267 599.28 460.368 597.381 458.026 597.381Z" fill="#87CBF8"/>
<path d="M406.994 310H339.96C334.486 310 330.05 314.437 330.05 319.91V386.944C330.05 392.417 334.486 396.854 339.96 396.854H406.994C412.467 396.854 416.904 392.417 416.904 386.944V319.91C416.904 314.437 412.467 310 406.994 310Z" fill="#87CBF8"/>
<path d="M291.539 310H224.504C219.031 310 214.594 314.437 214.594 319.91V386.944C214.594 392.417 219.031 396.854 224.504 396.854H291.539C297.012 396.854 301.449 392.417 301.449 386.944V319.91C301.449 314.437 297.012 310 291.539 310Z" fill="#87CBF8"/>
<path d="M176.084 310H109.05C103.576 310 99.1396 314.437 99.1396 319.91V386.944C99.1396 392.417 103.576 396.854 109.05 396.854H176.084C181.557 396.854 185.994 392.417 185.994 386.944V319.91C185.994 314.437 181.557 310 176.084 310Z" fill="#87CBF8"/>
<path d="M406.994 479.668H339.96C334.486 479.668 330.05 484.105 330.05 489.578V556.612C330.05 562.085 334.486 566.522 339.96 566.522H406.994C412.467 566.522 416.904 562.085 416.904 556.612V489.578C416.904 484.105 412.467 479.668 406.994 479.668Z" fill="#87CBF8"/>
<path d="M291.539 479.668H224.504C219.031 479.668 214.594 484.105 214.594 489.578V556.612C214.594 562.085 219.031 566.522 224.504 566.522H291.539C297.012 566.522 301.449 562.085 301.449 556.612V489.578C301.449 484.105 297.012 479.668 291.539 479.668Z" fill="#87CBF8"/>
<path d="M176.084 479.668H109.05C103.576 479.668 99.1396 484.105 99.1396 489.578V556.612C99.1396 562.085 103.576 566.522 109.05 566.522H176.084C181.557 566.522 185.994 562.085 185.994 556.612V489.578C185.994 484.105 181.557 479.668 176.084 479.668Z" fill="#87CBF8"/>
<path d="M922.026 425.608H515.633C513.291 425.608 511.393 427.507 511.393 429.849V441.349C511.393 443.691 513.291 445.59 515.633 445.59H922.026C924.368 445.59 926.267 443.691 926.267 441.349V429.849C926.267 427.507 924.368 425.608 922.026 425.608Z" fill="#87CBF8"/>
<path d="M936 711.215V314.241C936 311.899 934.101 310 931.759 310H920.259C917.917 310 916.019 311.899 916.019 314.241V711.215C916.019 713.557 917.917 715.456 920.259 715.456H931.759C934.101 715.456 936 713.557 936 711.215Z" fill="#87CBF8"/>
<path d="M525.981 711.215V314.241C525.981 311.899 524.083 310 521.741 310H510.24C507.898 310 506 311.899 506 314.241V711.215C506 713.557 507.898 715.456 510.24 715.456H521.741C524.083 715.456 525.981 713.557 525.981 711.215Z" fill="#87CBF8"/>
<path d="M922.026 597.381H515.633C513.291 597.381 511.393 599.28 511.393 601.622V613.122C511.393 615.464 513.291 617.363 515.633 617.363H922.026C924.368 617.363 926.267 615.464 926.267 613.122V601.622C926.267 599.28 924.368 597.381 922.026 597.381Z" fill="#87CBF8"/>
<path d="M870.994 310H803.959C798.486 310 794.049 314.437 794.049 319.91V386.944C794.049 392.417 798.486 396.854 803.959 396.854H870.994C876.467 396.854 880.904 392.417 880.904 386.944V319.91C880.904 314.437 876.467 310 870.994 310Z" fill="#87CBF8"/>
<path d="M755.539 310H688.504C683.031 310 678.594 314.437 678.594 319.91V386.944C678.594 392.417 683.031 396.854 688.504 396.854H755.539C761.012 396.854 765.449 392.417 765.449 386.944V319.91C765.449 314.437 761.012 310 755.539 310Z" fill="#87CBF8"/>
<path d="M640.084 310H573.05C567.576 310 563.14 314.437 563.14 319.91V386.944C563.14 392.417 567.576 396.854 573.05 396.854H640.084C645.557 396.854 649.994 392.417 649.994 386.944V319.91C649.994 314.437 645.557 310 640.084 310Z" fill="#87CBF8"/>
<path d="M870.994 479.668H803.959C798.486 479.668 794.049 484.105 794.049 489.578V556.612C794.049 562.085 798.486 566.522 803.959 566.522H870.994C876.467 566.522 880.904 562.085 880.904 556.612V489.578C880.904 484.105 876.467 479.668 870.994 479.668Z" fill="#87CBF8"/>
<path d="M755.539 479.668H688.504C683.031 479.668 678.594 484.105 678.594 489.578V556.612C678.594 562.085 683.031 566.522 688.504 566.522H755.539C761.012 566.522 765.449 562.085 765.449 556.612V489.578C765.449 484.105 761.012 479.668 755.539 479.668Z" fill="#87CBF8"/>
<path d="M640.084 479.668H573.05C567.576 479.668 563.14 484.105 563.14 489.578V556.612C563.14 562.085 567.576 566.522 573.05 566.522H640.084C645.557 566.522 649.994 562.085 649.994 556.612V489.578C649.994 484.105 645.557 479.668 640.084 479.668Z" fill="#87CBF8"/>
<path d="M1386.03 425.608H979.633C977.291 425.608 975.393 427.507 975.393 429.849V441.349C975.393 443.691 977.291 445.59 979.633 445.59H1386.03C1388.37 445.59 1390.27 443.691 1390.27 441.349V429.849C1390.27 427.507 1388.37 425.608 1386.03 425.608Z" fill="#87CBF8"/>
<path d="M1400 711.215V314.241C1400 311.899 1398.1 310 1395.76 310H1384.26C1381.92 310 1380.02 311.899 1380.02 314.241V711.215C1380.02 713.557 1381.92 715.456 1384.26 715.456H1395.76C1398.1 715.456 1400 713.557 1400 711.215Z" fill="#87CBF8"/>
<path d="M989.981 711.215V314.241C989.981 311.899 988.083 310 985.741 310H974.24C971.898 310 970 311.899 970 314.241V711.215C970 713.557 971.898 715.456 974.24 715.456H985.741C988.083 715.456 989.981 713.557 989.981 711.215Z" fill="#87CBF8"/>
<path d="M1386.03 597.381H979.633C977.291 597.381 975.393 599.28 975.393 601.622V613.122C975.393 615.464 977.291 617.363 979.633 617.363H1386.03C1388.37 617.363 1390.27 615.464 1390.27 613.122V601.622C1390.27 599.28 1388.37 597.381 1386.03 597.381Z" fill="#87CBF8"/>
<path d="M1334.99 310H1267.96C1262.49 310 1258.05 314.437 1258.05 319.91V386.944C1258.05 392.417 1262.49 396.854 1267.96 396.854H1334.99C1340.47 396.854 1344.9 392.417 1344.9 386.944V319.91C1344.9 314.437 1340.47 310 1334.99 310Z" fill="#87CBF8"/>
<path d="M1219.54 310H1152.5C1147.03 310 1142.59 314.437 1142.59 319.91V386.944C1142.59 392.417 1147.03 396.854 1152.5 396.854H1219.54C1225.01 396.854 1229.45 392.417 1229.45 386.944V319.91C1229.45 314.437 1225.01 310 1219.54 310Z" fill="#87CBF8"/>
<path d="M1104.08 310H1037.05C1031.58 310 1027.14 314.437 1027.14 319.91V386.944C1027.14 392.417 1031.58 396.854 1037.05 396.854H1104.08C1109.56 396.854 1113.99 392.417 1113.99 386.944V319.91C1113.99 314.437 1109.56 310 1104.08 310Z" fill="#87CBF8"/>
<path d="M1334.99 479.668H1267.96C1262.49 479.668 1258.05 484.105 1258.05 489.578V556.612C1258.05 562.085 1262.49 566.522 1267.96 566.522H1334.99C1340.47 566.522 1344.9 562.085 1344.9 556.612V489.578C1344.9 484.105 1340.47 479.668 1334.99 479.668Z" fill="#87CBF8"/>
<path d="M1219.54 479.668H1152.5C1147.03 479.668 1142.59 484.105 1142.59 489.578V556.612C1142.59 562.085 1147.03 566.522 1152.5 566.522H1219.54C1225.01 566.522 1229.45 562.085 1229.45 556.612V489.578C1229.45 484.105 1225.01 479.668 1219.54 479.668Z" fill="#87CBF8"/>
<path d="M1104.08 479.668H1037.05C1031.58 479.668 1027.14 484.105 1027.14 489.578V556.612C1027.14 562.085 1031.58 566.522 1037.05 566.522H1104.08C1109.56 566.522 1113.99 562.085 1113.99 556.612V489.578C1113.99 484.105 1109.56 479.668 1104.08 479.668Z" fill="#87CBF8"/>
</svg>
