<svg width="126" height="59" viewBox="0 0 126 59" fill="none" xmlns="http://www.w3.org/2000/svg">
<g clip-path="url(#clip0_1665_7538)">
<path d="M118.768 20.7665C118.768 20.1145 118.963 19.4772 119.329 18.9352C119.694 18.3931 120.213 17.9706 120.82 17.7211C121.428 17.4716 122.096 17.4064 122.741 17.5336C123.386 17.6607 123.978 17.9747 124.443 18.4357C124.908 18.8967 125.225 19.484 125.353 20.1234C125.481 20.7628 125.415 21.4256 125.164 22.0279C124.912 22.6302 124.486 23.145 123.939 23.5072C123.393 23.8694 122.75 24.0627 122.093 24.0627C121.211 24.0617 120.366 23.7141 119.743 23.0962C119.12 22.4782 118.769 21.6404 118.768 20.7665" fill="#86BC25"/>
<path d="M19.0511 11.8215C19.0511 15.6256 18.0191 18.556 15.9553 20.6128C13.8914 22.6696 10.9929 23.6929 7.2598 23.6827H3.05176e-05V0.908203H7.76672C11.3785 0.908203 14.1597 1.84323 16.1101 3.71328C18.0604 5.58333 19.0408 8.28609 19.0511 11.8215V11.8215ZM12.7549 12.0364C12.7549 9.94893 12.3486 8.4012 11.5359 7.39326C10.7232 6.38533 9.48751 5.88136 7.82865 5.88136H6.06399V18.6481H7.41455C9.25658 18.6481 10.6072 18.1045 11.4663 17.0173C12.3254 15.93 12.7549 14.2672 12.7549 12.0287" fill="black"/>
<path d="M44.9441 0.8125H39.1665V23.6983H44.9441V0.8125Z" fill="black"/>
<path d="M63.9024 15.1604C63.9024 17.9437 63.1658 20.1118 61.6927 21.6646C60.2196 23.2174 58.1557 23.9951 55.501 23.9977C52.9624 23.9977 50.9411 23.2034 49.437 21.6147C47.933 20.0261 47.1822 17.8746 47.1848 15.1604C47.1848 12.3898 47.9201 10.2371 49.3906 8.70216C50.8611 7.16723 52.925 6.39977 55.5823 6.39977C57.1049 6.36873 58.609 6.73531 59.9436 7.46271C61.2025 8.17542 62.2184 9.24426 62.8614 10.5326C63.5727 11.9767 63.9244 13.569 63.8869 15.1757L63.9024 15.1604ZM53.0514 15.1757C53.0514 16.6365 53.2423 17.7493 53.6242 18.5142C53.792 18.8771 54.0666 19.1813 54.4119 19.3868C54.7572 19.5922 55.1571 19.6893 55.5591 19.6654C55.9561 19.6901 56.3513 19.5928 56.6906 19.3868C57.0299 19.1808 57.2969 18.8761 57.4553 18.5142C57.8423 17.7467 58.0087 16.6377 58.0087 15.1757C58.0087 13.7137 57.8229 12.6316 57.4475 11.891C57.2764 11.5331 56.9999 11.2352 56.6544 11.0365C56.309 10.8378 55.9108 10.7477 55.5126 10.7781C55.1202 10.7552 54.7296 10.8479 54.3901 11.0446C54.0507 11.2412 53.7774 11.533 53.6048 11.8833C53.2204 12.6201 53.0295 13.7175 53.0321 15.1757" fill="black"/>
<path d="M71.9748 6.69873H66.1972V23.698H71.9748V6.69873Z" fill="black"/>
<path d="M71.9748 0.8125H66.1972V4.64214H71.9748V0.8125Z" fill="black"/>
<path d="M83.6808 19.362C84.6391 19.3263 85.5842 19.1277 86.4748 18.7749V23.0535C85.7616 23.3716 85.0172 23.616 84.2535 23.7826C83.4374 23.9371 82.6076 24.0091 81.7768 23.9975C79.8393 23.9975 78.4398 23.5153 77.5781 22.5508C76.7164 21.5864 76.2882 20.1039 76.2933 18.1034V11.0965H74.2694V6.69889H76.2933V2.35889L82.098 1.35352V6.69889H85.7859V11.0965H82.098V17.712C82.098 18.812 82.614 19.362 83.646 19.362" fill="black"/>
<path d="M97.0548 19.3624C98.0132 19.3266 98.9582 19.128 99.8488 18.7753V23.0539C99.1355 23.3714 98.3911 23.6157 97.6275 23.783C96.8114 23.9375 95.9817 24.0095 95.1509 23.9979C93.2134 23.9979 91.8151 23.5156 90.956 22.5512C90.0969 21.5867 89.6673 20.1043 89.6673 18.1038V11.0968H87.6434V6.69924H89.6673V2.31319L95.4914 1.37305V6.71844H99.1793V11.116H95.4914V17.7315C95.4914 18.8316 96.0074 19.3816 97.0394 19.3816" fill="black"/>
<path d="M115.29 8.40249C113.917 7.06711 111.969 6.39941 109.446 6.39941C106.797 6.39941 104.757 7.16688 103.328 8.7018C101.899 10.2367 101.184 12.4393 101.184 15.3097C101.184 18.093 101.958 20.2368 103.506 21.741C105.054 23.2452 107.22 23.9973 110.003 23.9973C111.161 24.0126 112.318 23.9227 113.459 23.7287C114.432 23.5436 115.372 23.2178 116.249 22.7617L115.363 18.9244C113.888 19.5436 112.298 19.8483 110.696 19.8185C109.747 19.8716 108.81 19.5842 108.057 19.0088C107.734 18.7318 107.475 18.3888 107.298 18.0034C107.121 17.6179 107.03 17.1991 107.031 16.7755H117.36V14.17C117.36 11.6604 116.672 9.74172 115.297 8.414L115.29 8.40249ZM107.148 13.1032C107.156 12.3459 107.442 11.6174 107.952 11.0541C108.18 10.8393 108.447 10.6711 108.74 10.5592C109.033 10.4472 109.345 10.3937 109.659 10.4017C109.99 10.3868 110.321 10.4452 110.627 10.5726C110.933 10.7 111.206 10.8933 111.427 11.1385C111.888 11.6897 112.131 12.3877 112.112 13.1032H107.148Z" fill="black"/>
<path d="M34.8672 8.40249C33.4921 7.06711 31.5443 6.39941 29.0238 6.39941C26.3717 6.39941 24.3323 7.16688 22.9056 8.7018C21.4789 10.2367 20.7656 12.4393 20.7656 15.3097C20.7656 18.093 21.5395 20.2368 23.0875 21.741C24.6354 23.2452 26.8012 23.9974 29.5849 23.9974C30.7427 24.0128 31.8994 23.9228 33.0406 23.7287C34.0134 23.5437 34.9535 23.2178 35.8308 22.7617L34.9446 18.9244C33.4693 19.5436 31.8793 19.8483 30.2776 19.8185C29.3283 19.8716 28.3915 19.5842 27.6384 19.0088C27.3152 18.7318 27.0564 18.3888 26.8794 18.0034C26.7024 17.6179 26.6115 17.1991 26.6129 16.7755H36.9414V14.17C36.9414 11.6604 36.2539 9.74172 34.8788 8.414L34.8672 8.40249ZM26.729 13.1032C26.8102 12.1707 27.0772 11.4877 27.5377 11.0541C27.7645 10.8388 28.0322 10.6702 28.3251 10.5583C28.6181 10.4463 28.9305 10.3931 29.2443 10.4017C29.5751 10.3874 29.905 10.446 30.2102 10.5734C30.5153 10.7008 30.7882 10.8938 31.009 11.1385C31.4695 11.6897 31.7128 12.3877 31.694 13.1032H26.729Z" fill="black"/>
<path d="M16.4815 39.9187C16.4815 43.5309 15.5257 46.2618 13.614 48.1114C11.7023 49.9609 8.8967 50.8858 5.19716 50.8858H3.05176e-05V29.3584H5.8628C9.32757 29.3584 11.9629 30.2538 13.7688 32.0445C15.5747 33.8353 16.479 36.46 16.4815 39.9187ZM14.833 39.9763C14.833 36.9064 14.0436 34.5874 12.4647 33.0192C10.8858 31.451 8.5639 30.6733 5.49902 30.6861H1.50539V49.5619H5.10041C11.5862 49.5721 14.8304 46.382 14.833 39.9916V39.9763Z" fill="black"/>
<path d="M20.843 50.901H19.3724V34.8955H20.843V50.901Z" fill="black"/>
<path d="M20.843 33.0308H19.3724V31.0239H20.843V33.0308Z" fill="black"/>
<path d="M41.1322 50.901H39.6617V34.8955H41.1322V50.901Z" fill="black"/>
<path d="M41.1322 33.0308H39.6617V31.0239H41.1322V33.0308Z" fill="black"/>
<path d="M37.0803 34.8954V35.9123L33.7407 36.1196C34.6002 37.1345 35.0728 38.4166 35.0758 39.742C35.1032 40.4397 34.9791 41.1352 34.7121 41.7814C34.445 42.4275 34.0412 43.0092 33.5279 43.4872C32.4959 44.4465 31.1079 44.9249 29.3639 44.9224C28.8464 44.9381 28.3284 44.9086 27.816 44.8341C27.2954 45.0884 26.839 45.4557 26.4809 45.9086C26.1861 46.2839 26.0243 46.7452 26.0204 47.2209C26.0052 47.4428 26.0517 47.6646 26.1547 47.8622C26.2577 48.0597 26.4134 48.2255 26.6048 48.3414C27.2208 48.6219 27.8984 48.7433 28.5745 48.6945H31.3956C33.1447 48.6945 34.4862 49.0449 35.4202 49.7459C36.3541 50.4468 36.8185 51.4842 36.8133 52.8579C36.8431 53.6323 36.6676 54.4009 36.3043 55.087C35.941 55.7731 35.4027 56.3527 34.7429 56.7682C33.3601 57.684 31.393 58.1432 28.8415 58.1458C26.8111 58.1458 25.2387 57.762 24.1242 56.9946C23.5917 56.6397 23.159 56.1561 22.8672 55.5894C22.5754 55.0228 22.434 54.3917 22.4563 53.7559C22.4213 52.7437 22.7914 51.7588 23.4857 51.016C24.2473 50.2516 25.2237 49.7327 26.2874 49.5271C25.8287 49.3434 25.4279 49.0413 25.1265 48.6522C24.8341 48.2812 24.6785 47.8222 24.6853 47.3514C24.6853 46.2795 25.3742 45.3368 26.7518 44.5233C25.8452 44.1678 25.0756 43.5363 24.5537 42.7197C24.0262 41.8736 23.7574 40.8939 23.7798 39.8993C23.751 39.1877 23.8741 38.4781 24.1408 37.8169C24.4075 37.1556 24.812 36.5576 25.3277 36.062C26.3597 35.095 27.7425 34.6115 29.4761 34.6115C30.3091 34.5815 31.1415 34.6852 31.9412 34.9185L37.0803 34.8954ZM24.0158 53.6101C24.0158 55.8101 25.6631 56.9102 28.9576 56.9102C33.1937 56.9102 35.3131 55.5696 35.3157 52.8886C35.3507 52.484 35.277 52.0775 35.1024 51.7102C34.9277 51.3429 34.6582 51.028 34.3211 50.7973C33.6555 50.3675 32.5836 50.1488 31.0976 50.1488H28.4545C25.4928 50.1488 24.0133 51.3025 24.0158 53.6101ZM25.2465 39.8878C25.215 40.4206 25.3005 40.9537 25.4969 41.4506C25.6933 41.9474 25.996 42.3961 26.3842 42.7658C27.2261 43.4795 28.3119 43.8462 29.4181 43.7904C30.7648 43.7904 31.7968 43.4514 32.514 42.7735C33.2312 42.0955 33.591 41.1145 33.5936 39.8303C33.5936 38.4642 33.2066 37.4434 32.4869 36.7604C31.7671 36.0774 30.7145 35.7358 29.391 35.7358C28.8361 35.7049 28.2806 35.7863 27.7583 35.975C27.2361 36.1636 26.7581 36.4557 26.3532 36.8333C25.6141 37.5624 25.2465 38.5831 25.2465 39.8878Z" fill="black"/>
<path d="M64.8232 50.9009L64.4362 48.3683H64.3162C63.6548 49.2717 62.7997 50.0187 61.8125 50.5555C60.8657 51.0018 59.8265 51.2214 58.7785 51.1964C57.1919 51.1964 55.9587 50.7934 55.079 49.9876C54.1993 49.1818 53.7594 48.0677 53.7594 46.6453C53.7368 45.9213 53.9066 45.2041 54.2516 44.5656C54.5966 43.9272 55.1048 43.3899 55.7253 43.0075C57.0358 42.1454 58.9346 41.69 61.4216 41.6414L64.4942 41.5532V40.4902C64.4942 38.9707 64.1821 37.8195 63.5578 37.0366C62.9334 36.2538 61.9285 35.8701 60.5432 35.8855C58.9171 35.9215 57.324 36.3467 55.8994 37.1249L55.3499 35.8586C56.9886 35.064 58.785 34.6407 60.609 34.6191C62.3813 34.6191 63.7048 35.0758 64.5794 35.9891C65.454 36.9023 65.8925 38.326 65.8951 40.26V50.9047L64.8232 50.9009ZM58.883 49.8725C60.6038 49.8725 61.9621 49.3839 62.9579 48.4066C63.9537 47.4294 64.4517 46.0723 64.4517 44.3352V42.7581L61.6306 42.8771C59.3629 42.9845 57.7466 43.335 56.7817 43.9285C56.3086 44.2174 55.9239 44.6287 55.6689 45.1182C55.4139 45.6077 55.2983 46.1569 55.3344 46.7067C55.3096 47.1387 55.3793 47.571 55.539 47.9737C55.6987 48.3765 55.9444 48.7402 56.2593 49.0398C56.9975 49.634 57.934 49.9312 58.883 49.8725V49.8725Z" fill="black"/>
<path d="M71.5065 50.901H70.036V27.9922H71.5065V50.901Z" fill="black"/>
<path d="M49.8855 49.8958C50.7044 49.9078 51.5221 49.8293 52.3235 49.6618V50.8398C51.526 51.087 50.6939 51.2062 49.8584 51.1929C48.4305 51.1929 47.3817 50.8091 46.7007 50.0417C46.0196 49.2742 45.6868 48.1 45.6868 46.4806V36.1621H43.2953V34.8958H45.6868V31.3079L47.1844 31.0239V34.8958H51.921V36.1621H47.1844V46.2926C47.1844 47.5205 47.4024 48.4287 47.8384 49.0171C48.0808 49.3188 48.3943 49.5567 48.7513 49.71C49.1083 49.8632 49.4978 49.927 49.8855 49.8958V49.8958Z" fill="black"/>
</g>
<defs>
<clipPath id="clip0_1665_7538">
<rect width="125.417" height="57.3333" fill="white" transform="translate(0 0.8125)"/>
</clipPath>
</defs>
</svg>
