<?xml version="1.0" encoding="utf-8"?>
<!-- Generator: Adobe Illustrator 27.7.0, SVG Export Plug-In . SVG Version: 6.00 Build 0)  -->
<svg version="1.1" id="Layer_1" xmlns="http://www.w3.org/2000/svg" xmlns:xlink="http://www.w3.org/1999/xlink" x="0px" y="0px"
	 viewBox="0 0 26.3 28.9" style="enable-background:new 0 0 26.3 28.9;" xml:space="preserve">
<style type="text/css">
	.st0{fill:#FFFFFF;}
</style>
<path class="st0" d="M25.6,13.8c-2.9,0.3-6.3,0.5-9.8,0.7c0,0.2,0,0.3,0,0.5c1.2,1.2,2.5,2.4,3.7,3.5c0.9,1,2.2,1.7,2.8,2.9
	c0.2,0.6-0.2,1.3-0.8,1.4c-0.1,0-0.2,0-0.3,0c-1-0.1-1.4-1-2.6-1.9c-0.9-0.7-1.7-1.5-2.5-2.2c0.2,3,0.4,6,0.6,9c0,0.6-0.4,1-1,1.1
	c-0.4,0-0.8-0.2-1-0.6c-0.5-3-0.8-7-1.2-11.3c-2.1,2.4-4.2,4.7-6.4,7c-0.3,0.4-1,0.4-1.4,0.1c-0.2-0.2-0.3-0.4-0.3-0.7
	c0.1-0.8,0.1-0.4,0.4-0.8c2.1-2.5,4.3-4.9,6.4-7.4c-0.1-0.1-0.2-0.2-0.3-0.3C8.5,15,5,15.4,1.5,16c-0.6,0.2-1.3-0.2-1.4-0.9
	c-0.1-0.4,0-0.9,0.4-1.2c3.1-0.7,6.2-1.1,9.4-1.4c-2-2.2-4.1-4.4-6.1-6.6c-0.5-0.5-0.5-1.3,0-1.8C4,3.9,4.3,3.8,4.6,3.8
	c1.2,0.1,2,1.7,2.9,2.5c1.8,2,3.7,4,5.6,6c0.1,0,0.1,0,0.2,0c-0.2-3.8-0.4-7.7-0.5-11.1C12.8,0.5,13.3,0,14,0c0.3,0,0.6,0.1,0.8,0.3
	c0.2,0.2,0.3,0.5,0.3,0.8c0,2.1,0.1,4.2,0.3,6.4c0.1,1.2,0.2,2.5,0.2,3.7c2.6-3.5,5.5-6.8,8.5-9.9c0.4-0.4,1.1-0.4,1.5,0
	C25.9,1.5,26,1.8,26,2.1c0,0.3-0.1,0.6-0.3,0.8c-1.3,1.2-2.5,2.5-3.6,3.9c-1.4,1.8-2.8,3.5-4.3,5.3c2.4-0.1,4.8-0.2,7.1-0.2
	c0.6-0.1,1.1,0.3,1.3,0.9C26.3,13.1,26.1,13.6,25.6,13.8z"/>
</svg>
