<svg width="40" height="43" viewBox="0 0 40 43" fill="none" xmlns="http://www.w3.org/2000/svg">
<path d="M10.8048 0H15.1253C15.1349 0.193654 15.1505 0.355404 15.1505 0.517154C15.152 3.52511 15.1743 6.53306 15.1357 9.54027C15.126 10.3127 15.0006 11.1029 14.7951 11.8485C14.2349 13.883 12.9075 15.2423 10.9012 15.8878C8.8994 16.5319 6.87604 16.5126 4.89869 15.8003C2.76478 15.0323 1.52421 13.4497 1.07309 11.2513C0.945468 10.6302 0.880175 9.98619 0.875723 9.35255C0.856432 6.40692 0.866819 3.4613 0.869045 0.514928C0.869787 0.355404 0.892788 0.19588 0.907628 0.00296788H5.24222V0.693001C5.24222 3.41233 5.24222 6.13165 5.24222 8.85098C5.24222 9.09805 5.2489 9.34513 5.25781 9.59221C5.32978 11.5473 6.73878 12.4429 8.4468 12.2507C9.73709 12.1053 10.5228 11.3225 10.7165 10.024C10.7677 9.67902 10.7988 9.32806 10.7996 8.98008C10.8063 6.2192 10.8033 3.45907 10.8033 0.698195C10.8033 0.476346 10.8033 0.254496 10.8033 0L10.8048 0Z" fill="black"/>
<path d="M1.11754 39.5404C2.04723 38.7858 2.93537 38.0654 3.83761 37.3331C4.0231 37.4918 4.17892 37.6224 4.3325 37.756C5.6636 38.9083 7.19355 39.3423 8.92011 38.975C9.2911 38.8964 9.67692 38.7383 9.97816 38.5135C10.5873 38.0572 10.5079 37.3071 9.82532 36.9665C9.4254 36.7669 8.98466 36.6393 8.5521 36.5154C7.64392 36.2542 6.71794 36.0524 5.8209 35.7601C4.73391 35.4062 3.76193 34.8385 2.95466 34.0053C1.07377 32.0636 1.27484 29.0393 3.40133 27.3617C4.27686 26.6709 5.27703 26.2658 6.36476 26.0633C8.21153 25.7197 10.0108 25.8548 11.7411 26.6197C12.6797 27.0345 13.4795 27.6347 14.0968 28.462C14.1807 28.5741 14.2445 28.701 14.3484 28.8731C13.4402 29.6076 12.5506 30.3274 11.6936 31.0196C11.218 30.7095 10.8055 30.3986 10.3558 30.156C9.40017 29.6418 8.37476 29.4763 7.31078 29.7219C6.99841 29.7939 6.68233 29.9356 6.41967 30.1189C5.92774 30.4624 5.86764 31.03 6.30318 31.4433C6.57697 31.7037 6.93311 31.9204 7.29149 32.0391C8.05052 32.2906 8.8333 32.4731 9.61015 32.6698C10.5495 32.9079 11.4836 33.1721 12.3198 33.6677C12.8459 33.9793 13.3682 34.3347 13.7956 34.7666C15.4391 36.4256 15.3085 39.5152 13.2695 41.123C12.325 41.868 11.2417 42.2827 10.0739 42.4979C8.13288 42.8555 6.22305 42.7554 4.36515 42.055C3.4132 41.6958 2.53693 41.201 1.83725 40.4449C1.58869 40.1763 1.37872 39.8713 1.11606 39.5389L1.11754 39.5404Z" fill="black"/>
<path d="M39.4859 30.1381H34.8323C34.8197 32.1874 34.8278 34.1774 34.8263 36.1666C34.8249 38.1432 34.8263 40.1206 34.8263 42.0905C34.3774 42.2189 31.3183 42.2471 30.465 42.1291V30.1693H25.7624V26.3882H39.4859V30.1388V30.1381Z" fill="black"/>
<path d="M35.6842 4.70508H29.5845V10.8048H35.6842V4.70508Z" fill="black"/>
</svg>
