<svg width="151" height="31" viewBox="0 0 151 31" fill="none" xmlns="http://www.w3.org/2000/svg">
<path d="M122.936 30.0924C122.345 30.0301 121.752 29.9874 121.165 29.9004C120.306 29.7729 119.492 29.4899 118.71 29.1163C118.633 29.0794 118.539 28.9698 118.539 28.8932C118.533 27.6663 118.541 26.4394 118.546 25.2126C118.546 25.2045 118.556 25.1964 118.585 25.1538C118.694 25.2022 118.811 25.2529 118.927 25.3065C120.315 25.9442 121.757 26.3933 123.292 26.4659C123.756 26.4879 124.234 26.4475 124.688 26.3547C125.154 26.2595 125.5 25.9592 125.597 25.4605C125.696 24.956 125.484 24.5524 125.065 24.312C124.385 23.9229 123.671 23.5942 122.976 23.2304C122.205 22.8269 121.406 22.4642 120.678 21.9932C119.16 21.0108 118.564 19.5395 118.654 17.7758C118.768 15.5568 120.092 14.0422 122.385 13.4807C124.58 12.9439 126.728 13.1774 128.841 13.9015C129.13 14.0007 129.414 14.1189 129.699 14.2296C129.724 14.2394 129.744 14.2619 129.79 14.2965C129.417 15.4426 129.043 16.5928 128.675 17.7216C127.959 17.4755 127.27 17.216 126.567 17.0044C125.828 16.7825 125.068 16.6758 124.292 16.7519C124.131 16.7675 123.968 16.798 123.814 16.8465C123.445 16.9629 123.161 17.1843 123.072 17.5775C122.978 17.9926 123.113 18.3639 123.462 18.5876C123.991 18.9283 124.55 19.227 125.108 19.5199C126.049 20.0134 127.031 20.4348 127.938 20.9819C129.936 22.1852 130.317 24.1396 129.916 26.0168C129.522 27.8623 128.289 28.9981 126.558 29.5942C125.868 29.8318 125.12 29.9009 124.398 30.0451C124.295 30.0658 124.19 30.0762 124.087 30.0918H122.934L122.936 30.0924Z" fill="#86BC25"/>
<path d="M8.07589 30.0927C7.46937 30.005 6.85248 29.9612 6.25807 29.8223C3.83663 29.2584 2.2085 27.7819 1.44401 25.4268C0.700282 23.1368 0.6507 20.8053 1.34773 18.4939C2.29613 15.3512 4.75793 13.4441 8.04879 13.2221C10.0217 13.0889 11.9052 13.4348 13.7461 14.2599C13.3616 15.4423 12.9799 16.6185 12.5994 17.7888C11.9767 17.5576 11.391 17.2803 10.7746 17.1264C10.1203 16.9627 9.43766 16.8427 8.76485 16.8318C7.4123 16.8093 6.51579 17.5496 5.9848 18.7447C5.39039 20.0829 5.34715 21.4977 5.52011 22.9211C5.58411 23.4481 5.70691 23.9837 5.89947 24.4772C6.42988 25.8338 7.58295 26.4957 9.17592 26.4686C10.4783 26.4467 11.6804 26.0396 12.8738 25.5818C12.9545 25.5507 13.0347 25.5202 13.1165 25.4931C13.1419 25.4844 13.1707 25.4867 13.214 25.4821C13.2197 25.5622 13.2307 25.6366 13.2307 25.711C13.2318 26.7851 13.2272 27.8592 13.2353 28.9332C13.237 29.1166 13.1736 29.2054 13.0064 29.2711C11.8914 29.7121 10.736 29.9658 9.54029 30.046C9.39788 30.0558 9.25605 30.0771 9.11365 30.0927H8.07646H8.07589Z" fill="#86BC25"/>
<path d="M75.2583 29.8487H73.998C72.894 29.8487 71.7893 29.8424 70.6852 29.8545C70.4806 29.8568 70.4056 29.7916 70.3578 29.5997C70.1473 28.755 69.9121 27.9156 69.704 27.0704C69.6458 26.8352 69.5472 26.7579 69.2981 26.7596C67.704 26.7723 66.1099 26.77 64.5163 26.7614C64.3174 26.7602 64.2327 26.815 64.1825 27.0127C63.9646 27.8654 63.7219 28.7118 63.5028 29.5639C63.4497 29.7715 63.3731 29.8568 63.1401 29.8545C61.7092 29.8424 60.2788 29.8487 58.8478 29.8476C58.7637 29.8476 58.6789 29.8406 58.5602 29.8349C58.7596 29.2238 58.9522 28.6357 59.1436 28.0471C60.7008 23.263 62.2598 18.4795 63.8083 13.6931C63.8879 13.4469 63.9784 13.3512 64.2557 13.3541C66.0222 13.3702 67.7893 13.3668 69.5564 13.3569C69.7784 13.3558 69.8608 13.4261 69.9294 13.6348C71.6717 18.9424 73.4232 24.2471 75.173 29.5518C75.2024 29.6406 75.2255 29.7311 75.2589 29.8481L75.2583 29.8487ZM66.9124 16.2425C66.3416 18.5411 65.7732 20.8288 65.203 23.1246H68.6789C68.0868 20.8185 67.5005 18.5348 66.9124 16.2425Z" fill="#86BC25"/>
<path d="M24.5209 29.8368H19.6648C19.8568 29.2413 20.0424 28.6618 20.2309 28.0824C21.7916 23.288 23.3552 18.4947 24.9066 13.6973C24.9931 13.4298 25.109 13.3537 25.3828 13.356C27.1309 13.3693 28.8789 13.367 30.627 13.3572C30.8634 13.356 30.9648 13.4171 31.0427 13.6547C32.4644 18.0006 33.8994 22.343 35.3309 26.6861C35.6601 27.6852 35.9882 28.6849 36.3168 29.684C36.3312 29.7273 36.3393 29.7728 36.3549 29.8345C36.262 29.8403 36.1877 29.8484 36.1139 29.8484C34.6731 29.8489 33.2324 29.8443 31.7916 29.8541C31.591 29.8553 31.5085 29.7988 31.4601 29.6028C31.2479 28.7483 31.011 27.8997 30.8005 27.0447C30.7475 26.8285 30.6593 26.7593 30.4339 26.761C28.8397 26.7714 27.245 26.7702 25.6509 26.7622C25.4365 26.761 25.3361 26.8083 25.2785 27.0372C25.0421 27.9723 24.778 28.9 24.5221 29.8368H24.5209ZM28.0141 16.2491C27.437 18.5708 26.872 20.8435 26.3053 23.1231H29.7824C29.1932 20.8331 28.6103 18.5673 28.0141 16.2491Z" fill="#86BC25"/>
<path d="M97.2782 13.4534C97.4097 13.4465 97.5008 13.4378 97.5913 13.4378C98.9934 13.4372 100.396 13.4419 101.798 13.4326C102.002 13.4315 102.096 13.5007 102.181 13.684C103.016 15.511 103.863 17.3329 104.707 19.1565C104.755 19.2597 104.804 19.3623 104.878 19.5162C104.942 19.398 104.988 19.3214 105.026 19.2406C105.891 17.3854 106.756 15.5295 107.617 13.6725C107.681 13.5358 107.731 13.4321 107.92 13.4332C109.38 13.4419 110.839 13.4378 112.299 13.439C112.353 13.439 112.407 13.4534 112.5 13.4672C112.231 13.97 111.975 14.4485 111.716 14.9259C110.228 17.6794 108.736 20.4312 107.255 23.1882C107.169 23.3479 107.12 23.5479 107.119 23.7301C107.109 25.6477 107.113 27.5658 107.113 29.4839C107.113 29.5958 107.113 29.7076 107.113 29.8345H102.648C102.648 29.7174 102.648 29.6148 102.648 29.5122C102.648 27.6517 102.654 25.7918 102.639 23.9313C102.638 23.6949 102.574 23.4355 102.464 23.2268C100.792 20.0726 99.1076 16.9247 97.4276 13.7751C97.3797 13.6852 97.3411 13.5906 97.2777 13.4551L97.2782 13.4534Z" fill="#86BC25"/>
<path d="M45.2564 17.0471H41.2512V13.457H54.44C54.3443 13.7557 54.2561 14.0347 54.1661 14.3132C53.8981 15.1411 53.6236 15.9673 53.3648 16.7986C53.3065 16.986 53.2218 17.0483 53.0229 17.0465C52.0243 17.0356 51.0258 17.0413 50.0272 17.0413C49.924 17.0413 49.8208 17.0413 49.6951 17.0413V29.8277H45.2564V17.0471Z" fill="#86BC25"/>
<path d="M145.381 17.0411V29.8303H140.949V17.0474H136.948V13.4521H150.129C150.102 13.5605 150.084 13.6482 150.057 13.7329C149.728 14.7517 149.392 15.7692 149.069 16.7903C149.01 16.9742 148.927 17.0474 148.726 17.0457C147.727 17.0353 146.728 17.0411 145.73 17.0411C145.626 17.0411 145.523 17.0411 145.381 17.0411Z" fill="#86BC25"/>
<path d="M93.2503 26.2722V29.8317H82.5123V13.4575H86.9199V26.2722H93.2503Z" fill="#86BC25"/>
<path d="M19.2113 4.29473C19.2113 5.77873 18.8088 6.922 18.0034 7.72396C17.1986 8.52649 16.0674 8.92546 14.6117 8.92142H11.7797V0.0375977H14.8094C16.2185 0.0375977 17.3029 0.402544 18.064 1.13186C18.825 1.86118 19.2072 2.91566 19.2113 4.29473ZM16.7552 4.37833C16.7552 3.56426 16.5967 2.96005 16.2796 2.56685C15.9625 2.17366 15.4805 1.97706 14.8336 1.97706H14.1453V6.95774H14.6722C15.3906 6.95774 15.9175 6.74558 16.2525 6.32182C16.5875 5.89749 16.7552 5.24889 16.7552 4.37602" fill="black"/>
<path d="M29.3123 0H27.0586V8.92764H29.3123V0Z" fill="black"/>
<path d="M36.7072 5.59752C36.7072 6.68313 36.4201 7.52891 35.8453 8.13485C35.2705 8.74078 34.4656 9.04404 33.4302 9.04519C32.4397 9.04519 31.6516 8.73559 31.0647 8.11582C30.4778 7.49605 30.1849 6.65661 30.186 5.59809C30.186 4.51709 30.4726 3.67766 31.0462 3.07864C31.6199 2.47962 32.4247 2.1804 33.4613 2.1804C34.0551 2.16829 34.6421 2.31127 35.1627 2.59493C35.6539 2.87282 36.05 3.28965 36.3008 3.79239C36.5781 4.35566 36.7153 4.97659 36.7009 5.60386L36.7072 5.59809V5.59752ZM32.4743 5.60328C32.4743 6.1729 32.5487 6.60703 32.698 6.90567C32.7637 7.0475 32.8704 7.16569 33.0053 7.24583C33.1402 7.32597 33.2959 7.36402 33.4527 7.35479C33.6078 7.3646 33.7617 7.32654 33.8943 7.24641C34.0269 7.16627 34.1307 7.04693 34.1924 6.90625C34.3434 6.60703 34.408 6.17405 34.408 5.60386C34.408 5.03367 34.3353 4.61164 34.1889 4.32222C34.122 4.1827 34.0142 4.06624 33.8793 3.98899C33.7444 3.91173 33.5893 3.87656 33.4336 3.88809C33.2803 3.87887 33.1281 3.91519 32.9961 3.99187C32.8635 4.06855 32.7568 4.18213 32.6899 4.31876C32.54 4.60645 32.4656 5.03424 32.4662 5.60328" fill="black"/>
<path d="M39.856 2.29639H37.6023V8.92769H39.856V2.29639Z" fill="black"/>
<path d="M39.856 0H37.6023V1.4938H39.856V0Z" fill="black"/>
<path d="M44.4225 7.2365C44.7961 7.22266 45.1651 7.14483 45.5122 7.00762V8.67668C45.2337 8.80064 44.9437 8.89634 44.6457 8.96092C44.3274 9.02145 44.0034 9.04912 43.6794 9.04451C42.9236 9.04451 42.3776 8.85656 42.0415 8.48009C41.7053 8.10361 41.5381 7.52534 41.5404 6.74529V4.01194H40.7512V2.29675H41.5404V0.603469L43.8045 0.211426V2.29675H45.243V4.01194H43.8045V6.59251C43.8045 7.02145 44.0057 7.23592 44.4081 7.23592" fill="black"/>
<path d="M49.64 7.23633C50.0136 7.22249 50.3826 7.14466 50.7296 7.00745V8.67651C50.4512 8.80047 50.1612 8.8956 49.8631 8.96074C49.5449 9.02128 49.2209 9.04895 48.8968 9.04434C48.141 9.04434 47.5956 8.85639 47.2606 8.47992C46.9257 8.10344 46.7579 7.52517 46.7579 6.74512V4.01177H45.9686V2.29658H46.7579V0.585426L49.03 0.21875V2.30408H50.4685V4.01927H49.03V6.59984C49.03 7.02878 49.2312 7.24325 49.6337 7.24325" fill="black"/>
<path d="M56.7525 2.96089C56.2169 2.4397 55.457 2.17969 54.4729 2.17969C53.4391 2.17969 52.6441 2.47891 52.0866 3.07793C51.5291 3.67695 51.25 4.53598 51.25 5.65561C51.25 6.77524 51.5522 7.57778 52.1558 8.16469C52.7594 8.7516 53.6046 9.04506 54.6902 9.04506C55.1417 9.05083 55.5925 9.01566 56.0382 8.94013C56.4181 8.86806 56.7842 8.74065 57.1267 8.56308L56.7813 7.06639C56.2054 7.30796 55.5856 7.42673 54.9606 7.4152C54.5905 7.43595 54.2255 7.32353 53.9315 7.09926C53.8052 6.99144 53.7044 6.85711 53.6352 6.70721C53.566 6.55674 53.5308 6.39358 53.5314 6.22811H57.5602V5.21168C57.5602 4.23273 57.2921 3.48439 56.756 2.96666L56.7525 2.96204V2.96089ZM53.5764 4.79427C53.5798 4.49909 53.6911 4.21485 53.8906 3.99519C53.9788 3.9116 54.0831 3.84587 54.1979 3.80206C54.312 3.75824 54.4342 3.73748 54.5559 3.74037C54.6856 3.7346 54.8142 3.75709 54.9335 3.80724C55.0529 3.85683 55.1595 3.93235 55.246 4.02806C55.4259 4.2431 55.521 4.51523 55.5135 4.79427H53.5769H53.5764Z" fill="black"/>
<path d="M25.3817 2.96089C24.8455 2.4397 24.0857 2.17969 23.1021 2.17969C22.0678 2.17969 21.2722 2.47891 20.7152 3.07793C20.1589 3.67695 19.8804 4.53598 19.8804 5.65561C19.8804 6.77524 20.1825 7.57778 20.7862 8.16469C21.3898 8.75161 22.235 9.04506 23.3206 9.04506C23.772 9.05083 24.2235 9.01623 24.6685 8.94013C25.0479 8.86807 25.4146 8.74065 25.757 8.56308L25.4111 7.06639C24.8357 7.30796 24.2154 7.42673 23.5904 7.4152C23.2203 7.43595 22.8548 7.32353 22.5607 7.09926C22.4345 6.99145 22.3336 6.85711 22.2644 6.70721C22.1952 6.55674 22.16 6.39358 22.1606 6.22811H26.1894V5.21168C26.1894 4.23273 25.9214 3.48439 25.3846 2.96666L25.38 2.96204L25.3817 2.96089ZM22.2073 4.79427C22.239 4.43048 22.3434 4.16412 22.5227 3.9952C22.6109 3.91102 22.7152 3.8453 22.83 3.80206C22.9441 3.75824 23.0664 3.73748 23.1886 3.74094C23.3177 3.73518 23.4463 3.75824 23.5656 3.80782C23.6844 3.8574 23.7911 3.93293 23.877 4.02806C24.0568 4.2431 24.1514 4.51523 24.1439 4.79427H22.2073Z" fill="black"/>
</svg>
