<svg xmlns="http://www.w3.org/2000/svg" xmlns:xlink="http://www.w3.org/1999/xlink" viewBox="0 0 568 258" width="568" height="258" preserveAspectRatio="xMidYMid meet" style="width: 100%; height: 100%; transform: translate3d(0px, 0px, 0px); content-visibility: visible;"><defs><clipPath id="__lottie_element_356"><rect width="568" height="258" x="0" y="0"></rect></clipPath><g id="__lottie_element_377"><g style="display: block;" transform="matrix(1,0,0,1,289.7510070800781,135.62498474121094)" opacity="1"><g opacity="1" transform="matrix(1,0,0,1,-122.7509994506836,178.64500427246094)"><path fill="rgb(255,255,255)" fill-opacity="1" d=" M91.24849700927734,-64.6449966430664 C91.24849700927734,-64.6449966430664 91.24849700927734,64.6449966430664 91.24849700927734,64.6449966430664 C91.24849700927734,64.6449966430664 -91.24849700927734,64.6449966430664 -91.24849700927734,64.6449966430664 C-91.24849700927734,64.6449966430664 -91.24849700927734,-64.6449966430664 -91.24849700927734,-64.6449966430664 C-91.24849700927734,-64.6449966430664 91.24849700927734,-64.6449966430664 91.24849700927734,-64.6449966430664z"></path><path stroke-linecap="butt" stroke-linejoin="miter" fill-opacity="0" stroke-miterlimit="4" stroke="rgb(255,255,255)" stroke-opacity="1" stroke-width="0" d=" M91.24849700927734,-64.6449966430664 C91.24849700927734,-64.6449966430664 91.24849700927734,64.6449966430664 91.24849700927734,64.6449966430664 C91.24849700927734,64.6449966430664 -91.24849700927734,64.6449966430664 -91.24849700927734,64.6449966430664 C-91.24849700927734,64.6449966430664 -91.24849700927734,-64.6449966430664 -91.24849700927734,-64.6449966430664 C-91.24849700927734,-64.6449966430664 91.24849700927734,-64.6449966430664 91.24849700927734,-64.6449966430664z"></path></g></g></g><filter id="__lottie_element_380" filterUnits="objectBoundingBox" x="0%" y="0%" width="100%" height="100%"><feComponentTransfer in="SourceGraphic"><feFuncA type="table" tableValues="1.0 0.0"></feFuncA></feComponentTransfer></filter><mask id="__lottie_element_377_2" mask-type="alpha"><g filter="url(#__lottie_element_380)"><rect width="568" height="258" x="0" y="0" fill="#ffffff" opacity="0"></rect><use xlink:href="#__lottie_element_377"></use></g></mask><g id="__lottie_element_1592"><g style="display: none;" transform="matrix(-0.9965356588363647,-0.08316630870103836,0.08316630870103836,-0.9965356588363647,-582.299072265625,385.82757568359375)" opacity="1"><g opacity="1" transform="matrix(1.0199999809265137,0,0,1.0199999809265137,13.18719482421875,-5.7486572265625)"><path fill="rgb(255,255,255)" fill-opacity="1" d=" M-659.8040161132812,309.572998046875 C-647.8579711914062,309.572998046875 -638.1729736328125,299.8890075683594 -638.1729736328125,287.9429931640625 C-638.1729736328125,275.99700927734375 -647.8579711914062,266.31201171875 -659.8040161132812,266.31201171875 C-671.75,266.31201171875 -681.4340209960938,275.99700927734375 -681.4340209960938,287.9429931640625 C-681.4340209960938,299.8890075683594 -671.75,309.572998046875 -659.8040161132812,309.572998046875z"></path></g><g opacity="1" transform="matrix(1.019971251487732,0,0,1.019971251487732,13.26080322265625,-6.31561279296875)"><path fill="rgb(255,255,255)" fill-opacity="1" d=" M-664.8679809570312,330.3210144042969 C-656.7269897460938,330.3210144042969 -650.1270141601562,323.72100830078125 -650.1270141601562,315.5790100097656 C-650.1270141601562,307.43798828125 -656.7269897460938,300.8380126953125 -664.8679809570312,300.8380126953125 C-673.010009765625,300.8380126953125 -679.6099853515625,307.43798828125 -679.6099853515625,315.5790100097656 C-679.6099853515625,323.72100830078125 -673.010009765625,330.3210144042969 -664.8679809570312,330.3210144042969z"></path></g><g opacity="1" transform="matrix(1.0199999809265137,0,0,1.0199999809265137,13.73876953125,-5.962646484375)"><path fill="rgb(255,255,255)" fill-opacity="1" d=" M-686.7429809570312,317.82598876953125 C-676.0380249023438,317.82598876953125 -667.3599853515625,309.14801025390625 -667.3599853515625,298.4429931640625 C-667.3599853515625,287.7380065917969 -676.0380249023438,279.0589904785156 -686.7429809570312,279.0589904785156 C-697.447998046875,279.0589904785156 -706.1270141601562,287.7380065917969 -706.1270141601562,298.4429931640625 C-706.1270141601562,309.14801025390625 -697.447998046875,317.82598876953125 -686.7429809570312,317.82598876953125z"></path></g></g></g><filter id="__lottie_element_1595" filterUnits="objectBoundingBox" x="0%" y="0%" width="100%" height="100%"><feComponentTransfer in="SourceGraphic"><feFuncA type="table" tableValues="1.0 0.0"></feFuncA></feComponentTransfer></filter><mask id="__lottie_element_1592_2" mask-type="alpha"><g filter="url(#__lottie_element_1595)"><rect width="568" height="258" x="0" y="0" fill="#ffffff" opacity="0"></rect><use xlink:href="#__lottie_element_1592"></use></g></mask><g id="__lottie_element_1599"><g style="display: none;" transform="matrix(1.0099166631698608,0.0019343792228028178,-0.0019343792228028178,1.0099166631698608,15.728323936462402,134.3843231201172)" opacity="1"><g opacity="1" transform="matrix(1,0,0,1,0,0)"><path fill="rgb(255,76,91)" fill-opacity="1" d=" M-0.0010000000474974513,-8.5 C-0.0010000000474974513,-8.5 3.003999948501587,-3.00600004196167 3.003999948501587,-3.00600004196167 C3.003999948501587,-3.00600004196167 8.5,-0.0010000000474974513 8.5,-0.0010000000474974513 C8.5,-0.0010000000474974513 3.003999948501587,3.003999948501587 3.003999948501587,3.003999948501587 C3.003999948501587,3.003999948501587 -0.0010000000474974513,8.5 -0.0010000000474974513,8.5 C-0.0010000000474974513,8.5 -3.00600004196167,3.003999948501587 -3.00600004196167,3.003999948501587 C-3.00600004196167,3.003999948501587 -8.5,-0.0010000000474974513 -8.5,-0.0010000000474974513 C-8.5,-0.0010000000474974513 -3.00600004196167,-3.00600004196167 -3.00600004196167,-3.00600004196167 C-3.00600004196167,-3.00600004196167 -0.0010000000474974513,-8.5 -0.0010000000474974513,-8.5z"></path></g></g></g><filter id="__lottie_element_1602" filterUnits="objectBoundingBox" x="0%" y="0%" width="100%" height="100%"><feComponentTransfer in="SourceGraphic"><feFuncA type="table" tableValues="1.0 0.0"></feFuncA></feComponentTransfer></filter><mask id="__lottie_element_1599_2" mask-type="alpha"><g filter="url(#__lottie_element_1602)"><rect width="568" height="258" x="0" y="0" fill="#ffffff" opacity="0"></rect><use xlink:href="#__lottie_element_1599"></use></g></mask><g id="__lottie_element_1606"><g style="display: none;" transform="matrix(1.0098955631256104,0.006753739435225725,-0.006753739435225725,1.0098955631256104,31.743505477905273,162.38917541503906)" opacity="1"><g opacity="1" transform="matrix(1,0,0,1,0,0)"><path fill="rgb(255,226,77)" fill-opacity="1" d=" M-0.0010000000474974513,-9.5 C-0.0010000000474974513,-9.5 3.3580000400543213,-3.359999895095825 3.3580000400543213,-3.359999895095825 C3.3580000400543213,-3.359999895095825 9.5,-0.0010000000474974513 9.5,-0.0010000000474974513 C9.5,-0.0010000000474974513 3.3580000400543213,3.3580000400543213 3.3580000400543213,3.3580000400543213 C3.3580000400543213,3.3580000400543213 -0.0010000000474974513,9.5 -0.0010000000474974513,9.5 C-0.0010000000474974513,9.5 -3.359999895095825,3.3580000400543213 -3.359999895095825,3.3580000400543213 C-3.359999895095825,3.3580000400543213 -9.5,-0.0010000000474974513 -9.5,-0.0010000000474974513 C-9.5,-0.0010000000474974513 -3.359999895095825,-3.359999895095825 -3.359999895095825,-3.359999895095825 C-3.359999895095825,-3.359999895095825 -0.0010000000474974513,-9.5 -0.0010000000474974513,-9.5z"></path></g></g></g><filter id="__lottie_element_1609" filterUnits="objectBoundingBox" x="0%" y="0%" width="100%" height="100%"><feComponentTransfer in="SourceGraphic"><feFuncA type="table" tableValues="1.0 0.0"></feFuncA></feComponentTransfer></filter><mask id="__lottie_element_1606_2" mask-type="alpha"><g filter="url(#__lottie_element_1609)"><rect width="568" height="258" x="0" y="0" fill="#ffffff" opacity="0"></rect><use xlink:href="#__lottie_element_1606"></use></g></mask><g id="__lottie_element_1613"><g style="display: none;" transform="matrix(1.0099046230316162,0.001974548678845167,-0.001974548678845167,1.0099046230316162,52.72821044921875,145.38427734375)" opacity="1"><g opacity="1" transform="matrix(1,0,0,1,0,0)"><path fill="rgb(144,211,255)" fill-opacity="1" d=" M0.0020000000949949026,-13.5 C0.0020000000949949026,-13.5 4.77400016784668,-4.77400016784668 4.77400016784668,-4.77400016784668 C4.77400016784668,-4.77400016784668 13.5,0.0020000000949949026 13.5,0.0020000000949949026 C13.5,0.0020000000949949026 4.77400016784668,4.77400016784668 4.77400016784668,4.77400016784668 C4.77400016784668,4.77400016784668 0.0020000000949949026,13.5 0.0020000000949949026,13.5 C0.0020000000949949026,13.5 -4.77400016784668,4.77400016784668 -4.77400016784668,4.77400016784668 C-4.77400016784668,4.77400016784668 -13.5,0.0020000000949949026 -13.5,0.0020000000949949026 C-13.5,0.0020000000949949026 -4.77400016784668,-4.77400016784668 -4.77400016784668,-4.77400016784668 C-4.77400016784668,-4.77400016784668 0.0020000000949949026,-13.5 0.0020000000949949026,-13.5z"></path></g></g></g><filter id="__lottie_element_1616" filterUnits="objectBoundingBox" x="0%" y="0%" width="100%" height="100%"><feComponentTransfer in="SourceGraphic"><feFuncA type="table" tableValues="1.0 0.0"></feFuncA></feComponentTransfer></filter><mask id="__lottie_element_1613_2" mask-type="alpha"><g filter="url(#__lottie_element_1616)"><rect width="568" height="258" x="0" y="0" fill="#ffffff" opacity="0"></rect><use xlink:href="#__lottie_element_1613"></use></g></mask></defs><g clip-path="url(#__lottie_element_356)"><g transform="matrix(0.99452143907547,-0.10453286021947861,0.10453286021947861,0.99452143907547,283.3713684082031,145.44940185546875)" opacity="1" style="display: block;"><g opacity="1" transform="matrix(1,0,0,1,0,0)"><path fill="rgb(132,169,228)" fill-opacity="1" d=" M-181.4739990234375,25.41699981689453 C-181.4739990234375,25.41699981689453 107.10700225830078,25.424999237060547 107.10700225830078,25.424999237060547 C107.10700225830078,25.424999237060547 107.10600280761719,61.4630012512207 107.10600280761719,61.4630012512207 C107.10600280761719,61.4630012512207 -174.38499450683594,61.45600128173828 -174.38499450683594,61.45600128173828 C-176.26499938964844,61.45500183105469 -178.0679931640625,60.70899963378906 -179.3979949951172,59.37900161743164 C-180.72799682617188,58.04999923706055 -181.47300720214844,56.24599838256836 -181.4739990234375,54.36600112915039 C-181.4739990234375,54.36600112915039 -181.4739990234375,25.44700050354004 -181.4739990234375,25.44700050354004 C-181.4739990234375,25.44700050354004 -181.4739990234375,25.41699981689453 -181.4739990234375,25.41699981689453z"></path></g></g><g transform="matrix(0.99452143907547,-0.10453286021947861,0.10453286021947861,0.99452143907547,283.3713684082031,145.44940185546875)" opacity="1" style="display: block;"><g opacity="1" transform="matrix(1,0,0,1,0,0)"><path fill="rgb(255,189,200)" fill-opacity="1" d=" M81.30899810791016,-115.5770034790039 C81.30899810791016,-115.5770034790039 -179.92999267578125,-115.58399963378906 -179.92999267578125,-115.58399963378906 C-186.2530059814453,-115.58399963378906 -191.3800048828125,-110.45800018310547 -191.3800048828125,-104.13500213623047 C-191.3800048828125,-104.13500213623047 -191.38299560546875,32.39500045776367 -191.38299560546875,32.39500045776367 C-191.38299560546875,38.71799850463867 -186.25799560546875,43.84400177001953 -179.93499755859375,43.84400177001953 C-179.93499755859375,43.84400177001953 81.30500030517578,43.85100173950195 81.30500030517578,43.85100173950195 C87.62799835205078,43.85100173950195 92.75499725341797,38.724998474121094 92.75499725341797,32.402000427246094 C92.75499725341797,32.402000427246094 92.75800323486328,-104.12799835205078 92.75800323486328,-104.12799835205078 C92.75800323486328,-110.45099639892578 87.63200378417969,-115.5770034790039 81.30899810791016,-115.5770034790039z"></path></g><g opacity="1" transform="matrix(1,0,0,1,0,0)"><path stroke-linecap="butt" stroke-linejoin="miter" fill-opacity="0" stroke-miterlimit="10" stroke="rgb(50,33,72)" stroke-opacity="1" stroke-width="0.9" d=" M55.165000915527344,-88.14099884033203 C55.165000915527344,-88.14099884033203 -154.53799438476562,-88.14600372314453 -154.53799438476562,-88.14600372314453 C-157.6179962158203,-88.14600372314453 -160.11399841308594,-85.6500015258789 -160.11399841308594,-82.56999969482422 C-160.11399841308594,-82.56999969482422 -160.11700439453125,10.581000328063965 -160.11700439453125,10.581000328063965 C-160.1179962158203,13.66100025177002 -157.6199951171875,16.156999588012695 -154.5399932861328,16.158000946044922 C-154.5399932861328,16.158000946044922 55.16400146484375,16.16200065612793 55.16400146484375,16.16200065612793 C58.24399948120117,16.163000106811523 60.7400016784668,13.666000366210938 60.7400016784668,10.586000442504883 C60.7400016784668,10.586000442504883 60.742000579833984,-82.56400299072266 60.742000579833984,-82.56400299072266 C60.74300003051758,-85.64399719238281 58.244998931884766,-88.14099884033203 55.165000915527344,-88.14099884033203z"></path></g></g><g transform="matrix(0.99452143907547,-0.10453286021947861,0.10453286021947861,0.99452143907547,-310.0904846191406,-334.8829040527344)" opacity="1" style="display: block;"><g opacity="1" transform="matrix(1,0,0,1,382.2799987792969,488.2770080566406)"><g opacity="1" transform="matrix(1,0,0,1,0,0)"><path fill="rgb(255,255,255)" fill-opacity="1" d=" M-0.0010000000474974513,24.67099952697754 C13.62399959564209,24.67099952697754 24.67099952697754,13.625 24.67099952697754,0 C24.67099952697754,-13.625 13.62399959564209,-24.67099952697754 -0.0010000000474974513,-24.67099952697754 C-13.62600040435791,-24.67099952697754 -24.67099952697754,-13.625 -24.67099952697754,0 C-24.67099952697754,13.625 -13.62600040435791,24.67099952697754 -0.0010000000474974513,24.67099952697754z"></path></g></g><g opacity="1" transform="matrix(1,0,0,1,382.2799987792969,488.2770080566406)"><g opacity="1" transform="matrix(1,0,0,1,0,0)"><path fill="rgb(255,226,77)" fill-opacity="1" d=" M0,20.55500030517578 C11.352999687194824,20.55500030517578 20.55500030517578,11.35200023651123 20.55500030517578,0 C20.55500030517578,-11.35200023651123 11.352999687194824,-20.55500030517578 0,-20.55500030517578 C-11.35200023651123,-20.55500030517578 -20.55500030517578,-11.35200023651123 -20.55500030517578,0 C-20.55500030517578,11.35200023651123 -11.35200023651123,20.55500030517578 0,20.55500030517578z"></path></g></g><g opacity="1" transform="matrix(1,0,0,1,386.92999267578125,482.552001953125)"><g opacity="1" transform="matrix(1,0,0,1,0,0)"><path fill="rgb(50,33,72)" fill-opacity="1" d=" M0.0010000000474974513,3.0850000381469727 C0.9300000071525574,3.0850000381469727 1.684000015258789,1.7039999961853027 1.684000015258789,0 C1.684000015258789,-1.7039999961853027 0.9300000071525574,-3.0850000381469727 0.0010000000474974513,-3.0850000381469727 C-0.9290000200271606,-3.0850000381469727 -1.684000015258789,-1.7039999961853027 -1.684000015258789,0 C-1.684000015258789,1.7039999961853027 -0.9290000200271606,3.0850000381469727 0.0010000000474974513,3.0850000381469727z"></path></g></g><g opacity="1" transform="matrix(1,0,0,1,377.63800048828125,482.552001953125)"><g opacity="1" transform="matrix(1,0,0,1,0,0)"><path fill="rgb(50,33,72)" fill-opacity="1" d=" M-0.0010000000474974513,3.0850000381469727 C0.9290000200271606,3.0850000381469727 1.684000015258789,1.7039999961853027 1.684000015258789,0 C1.684000015258789,-1.7039999961853027 0.9290000200271606,-3.0850000381469727 -0.0010000000474974513,-3.0850000381469727 C-0.9300000071525574,-3.0850000381469727 -1.684000015258789,-1.7039999961853027 -1.684000015258789,0 C-1.684000015258789,1.7039999961853027 -0.9300000071525574,3.0850000381469727 -0.0010000000474974513,3.0850000381469727z"></path></g></g><g opacity="1" transform="matrix(1,0,0,1,0,0)"><g opacity="1" transform="matrix(1,0,0,1,382.28399658203125,493.5169982910156)"><g opacity="1" transform="matrix(1,0,0,1,0,0)"><path stroke-linecap="butt" stroke-linejoin="miter" fill-opacity="0" stroke-miterlimit="10" stroke="rgb(50,33,72)" stroke-opacity="1" stroke-width="0.9" d=" M7.381999969482422,2.49399995803833 C6.789999961853027,1.0210000276565552 5.2210001945495605,-2.631999969482422 0,-2.49399995803833 C-5.2210001945495605,-2.3559999465942383 -6.789000034332275,1.0210000276565552 -7.381999969482422,2.49399995803833"></path></g></g></g></g><g transform="matrix(0.9994392991065979,-0.03348394110798836,0.03348394110798836,0.9994392991065979,-269.8448486328125,-378.9808044433594)" opacity="1" style="display: none;"><g opacity="1" transform="matrix(1,0,0,1,0,0)"><g opacity="1" transform="matrix(1,0,0,1,377.63800048828125,482.2919921875)"><path stroke-linecap="butt" stroke-linejoin="miter" fill-opacity="0" stroke-miterlimit="10" stroke="rgb(50,33,72)" stroke-opacity="1" stroke-width="0.9" d=" M-2.244999885559082,-2.2119998931884766 C-2.244999885559082,-2.2119998931884766 2.244999885559082,2.2119998931884766 2.244999885559082,2.2119998931884766"></path></g><g opacity="1" transform="matrix(1,0,0,1,377.63800048828125,482.2919921875)"><path stroke-linecap="butt" stroke-linejoin="miter" fill-opacity="0" stroke-miterlimit="10" stroke="rgb(50,33,72)" stroke-opacity="1" stroke-width="0.9" d=" M2.244999885559082,-2.2119998931884766 C2.244999885559082,-2.2119998931884766 -2.244999885559082,2.2119998931884766 -2.244999885559082,2.2119998931884766"></path></g></g><g opacity="1" transform="matrix(1,0,0,1,0,0)"><g opacity="1" transform="matrix(1,0,0,1,386.92999267578125,482.2919921875)"><path stroke-linecap="butt" stroke-linejoin="miter" fill-opacity="0" stroke-miterlimit="10" stroke="rgb(50,33,72)" stroke-opacity="1" stroke-width="0.9" d=" M-2.244999885559082,-2.2119998931884766 C-2.244999885559082,-2.2119998931884766 2.244999885559082,2.2119998931884766 2.244999885559082,2.2119998931884766"></path></g><g opacity="1" transform="matrix(1,0,0,1,386.92999267578125,482.2919921875)"><path stroke-linecap="butt" stroke-linejoin="miter" fill-opacity="0" stroke-miterlimit="10" stroke="rgb(50,33,72)" stroke-opacity="1" stroke-width="0.9" d=" M2.244999885559082,-2.2119998931884766 C2.244999885559082,-2.2119998931884766 -2.244999885559082,2.2119998931884766 -2.244999885559082,2.2119998931884766"></path></g></g></g><g transform="matrix(0.99452143907547,-0.10453286021947861,0.10453286021947861,0.99452143907547,283.5802307128906,147.4364471435547)" opacity="1" style="display: block;"><g opacity="1" transform="matrix(1,0,0,1,0,0)"><path fill="rgb(255,226,77)" fill-opacity="1" d=" M181.1820068359375,61.345001220703125 C181.1820068359375,61.345001220703125 102.9990005493164,61.35100173950195 102.9990005493164,61.35100173950195 C100.2979965209961,61.34400177001953 97.70899963378906,60.26499938964844 95.802001953125,58.35100173950195 C93.8949966430664,56.4379997253418 92.822998046875,53.84600067138672 92.82499694824219,51.14400100708008 C92.82499694824219,51.14400100708008 92.81400299072266,-42.87900161743164 92.81400299072266,-42.87900161743164 C92.8239974975586,-45.57899856567383 93.9020004272461,-48.165000915527344 95.81400299072266,-50.071998596191406 C97.7249984741211,-51.979000091552734 100.31400299072266,-53.051998138427734 103.01399993896484,-53.05500030517578 C103.01399993896484,-53.05500030517578 153.7989959716797,-53.058998107910156 153.7989959716797,-53.058998107910156 C155.59300231933594,-53.058998107910156 157.35400390625,-52.58700180053711 158.90699768066406,-51.68899917602539 C160.4600067138672,-50.79100036621094 161.7469940185547,-49.499000549316406 162.64100646972656,-47.944000244140625 C162.64100646972656,-47.944000244140625 189.20700073242188,-1.8630000352859497 189.20700073242188,-1.8630000352859497 C190.63699340820312,0.6330000162124634 191.38800048828125,3.4600000381469727 191.38299560546875,6.336999893188477 C191.38299560546875,6.336999893188477 191.3820037841797,51.16899871826172 191.3820037841797,51.16899871826172 C191.3719940185547,53.86899948120117 190.29400634765625,56.45500183105469 188.38299560546875,58.362998962402344 C186.4720001220703,60.27000045776367 183.8820037841797,61.34199905395508 181.1820068359375,61.345001220703125z"></path></g><g opacity="1" transform="matrix(1,0,0,1,0,0)"><path fill="rgb(50,33,72)" fill-opacity="1" d=" M101.6510009765625,-19.174999237060547 C101.6510009765625,-19.174999237060547 101.64900207519531,-35.56700134277344 101.64900207519531,-35.56700134277344 C101.64900207519531,-36.22999954223633 101.77799987792969,-36.887001037597656 102.03199768066406,-37.5 C102.28500366210938,-38.112998962402344 102.65599822998047,-38.66999816894531 103.125,-39.138999938964844 C103.59400177001953,-39.608001708984375 104.1510009765625,-39.97999954223633 104.76399993896484,-40.233001708984375 C105.37699890136719,-40.48699951171875 106.03399658203125,-40.617000579833984 106.6969985961914,-40.61600112915039 C106.6969985961914,-40.61600112915039 148.5189971923828,-40.61899948120117 148.5189971923828,-40.61899948120117 C149.39500427246094,-40.61899948120117 150.25599670410156,-40.391998291015625 151.01800537109375,-39.95899963378906 C151.77999877929688,-39.5260009765625 152.41700744628906,-38.90299987792969 152.86700439453125,-38.1510009765625 C152.86700439453125,-38.1510009765625 171.03700256347656,-7.519999980926514 171.03700256347656,-7.519999980926514 C171.54299926757812,-6.668000221252441 171.78700256347656,-5.684999942779541 171.73899841308594,-4.695000171661377 C171.69000244140625,-3.7049999237060547 171.3520050048828,-2.752000093460083 170.76499938964844,-1.9529999494552612 C170.17799377441406,-1.1540000438690186 169.3699951171875,-0.5450000166893005 168.43899536132812,-0.2029999941587448 C167.50900268554688,0.14000000059604645 166.4980010986328,0.20000000298023224 165.53399658203125,-0.027000000700354576 C165.53399658203125,-0.027000000700354576 105.53399658203125,-14.256999969482422 105.53399658203125,-14.256999969482422 C104.427001953125,-14.520000457763672 103.44200134277344,-15.14799976348877 102.73699951171875,-16.041000366210938 C102.03299713134766,-16.93400001525879 101.6500015258789,-18.038000106811523 101.6510009765625,-19.174999237060547z"></path></g><g opacity="1" transform="matrix(1,0,0,1,0,0)"><path stroke-linecap="butt" stroke-linejoin="miter" fill-opacity="0" stroke-miterlimit="10" stroke="rgb(50,33,72)" stroke-opacity="1" stroke-width="0.9" d=" M102.04900360107422,-23.61400032043457 C102.04900360107422,-23.61400032043457 101.91899871826172,13.418999671936035 101.91899871826172,13.418999671936035 C101.90399932861328,17.43000030517578 103.25499725341797,21.325000762939453 105.74800109863281,24.465999603271484 C108.24199676513672,27.60700035095215 111.7300033569336,29.80699920654297 115.63899993896484,30.70199966430664 C115.63899993896484,30.70199966430664 185.3090057373047,46.691001892089844 185.3090057373047,46.691001892089844"></path></g><g opacity="1" transform="matrix(1,0,0,1,0,0)"><path fill="rgb(255,255,255)" fill-opacity="1" d=" M184.89999389648438,46.5989990234375 C184.89999389648438,46.5989990234375 191.36599731445312,48.053001403808594 191.36599731445312,48.053001403808594 C191.36599731445312,48.053001403808594 191.36399841308594,32.354000091552734 191.36399841308594,32.354000091552734 C191.36399841308594,32.354000091552734 181.20799255371094,30.07699966430664 181.20799255371094,30.07699966430664 C181.04299926757812,30.041000366210938 180.8730010986328,30.04199981689453 180.70899963378906,30.08099937438965 C180.54400634765625,30.1200008392334 180.38999938964844,30.194000244140625 180.25900268554688,30.299999237060547 C180.1269989013672,30.4060001373291 180.02000427246094,30.538999557495117 179.94700622558594,30.691999435424805 C179.8730010986328,30.843000411987305 179.83399963378906,31.010000228881836 179.83299255371094,31.179000854492188 C179.83299255371094,31.179000854492188 179.8350067138672,40.2760009765625 179.8350067138672,40.2760009765625 C179.8350067138672,41.74800109863281 180.33799743652344,43.178001403808594 181.25799560546875,44.32699966430664 C182.1790008544922,45.47600173950195 183.46400451660156,46.277000427246094 184.89999389648438,46.5989990234375z"></path><path stroke-linecap="butt" stroke-linejoin="miter" fill-opacity="0" stroke-miterlimit="10" stroke="rgb(50,33,72)" stroke-opacity="1" stroke-width="0.9" d=" M184.89999389648438,46.5989990234375 C184.89999389648438,46.5989990234375 191.36599731445312,48.053001403808594 191.36599731445312,48.053001403808594 C191.36599731445312,48.053001403808594 191.36399841308594,32.354000091552734 191.36399841308594,32.354000091552734 C191.36399841308594,32.354000091552734 181.20799255371094,30.07699966430664 181.20799255371094,30.07699966430664 C181.04299926757812,30.041000366210938 180.8730010986328,30.04199981689453 180.70899963378906,30.08099937438965 C180.54400634765625,30.1200008392334 180.38999938964844,30.194000244140625 180.25900268554688,30.299999237060547 C180.1269989013672,30.4060001373291 180.02000427246094,30.538999557495117 179.94700622558594,30.691999435424805 C179.8730010986328,30.843000411987305 179.83399963378906,31.010000228881836 179.83299255371094,31.179000854492188 C179.83299255371094,31.179000854492188 179.8350067138672,40.2760009765625 179.8350067138672,40.2760009765625 C179.8350067138672,41.74800109863281 180.33799743652344,43.178001403808594 181.25799560546875,44.32699966430664 C182.1790008544922,45.47600173950195 183.46400451660156,46.277000427246094 184.89999389648438,46.5989990234375z"></path></g></g><g transform="matrix(1,-0.000004416357114678249,0.000004416357114678249,1,289.9996337890625,129.99945068359375)" opacity="1" style="display: block;"><g opacity="1" transform="matrix(1,0,0,1,0,0)"><path fill="rgb(255,76,91)" fill-opacity="1" d=" M111.12100219726562,115.58000183105469 C132.03799438476562,115.89299774169922 149.24600219726562,99.19000244140625 149.5590057373047,78.27300262451172 C149.8719940185547,57.35599899291992 133.1699981689453,40.14699935913086 112.25299835205078,39.83399963378906 C91.33599853515625,39.520999908447266 74.12699890136719,56.2239990234375 73.81400299072266,77.14099884033203 C73.5009994506836,98.05799865722656 90.2040023803711,115.26699829101562 111.12100219726562,115.58000183105469z"></path></g><g opacity="1" transform="matrix(1,0,0,1,0,0)"><path fill="rgb(50,33,72)" fill-opacity="1" d=" M111.3759994506836,98.49700164794922 C122.85800170898438,98.66899871826172 132.3040008544922,89.5 132.4759979248047,78.01699829101562 C132.6479949951172,66.53500366210938 123.47899627685547,57.0880012512207 111.99700164794922,56.91600036621094 C100.51499938964844,56.74399948120117 91.06800079345703,65.91300201416016 90.89600372314453,77.3949966430664 C90.7239990234375,88.87799835205078 99.89399719238281,98.32499694824219 111.3759994506836,98.49700164794922z"></path></g><g opacity="1" transform="matrix(1,0,0,1,0,0)"><path stroke-linecap="butt" stroke-linejoin="miter" fill-opacity="0" stroke-miterlimit="10" stroke="rgb(255,255,255)" stroke-opacity="1" stroke-width="0.9" d=" M111.55599975585938,86.447998046875 C116.38400268554688,86.5199966430664 120.35700225830078,82.66500091552734 120.42900085449219,77.83799743652344 C120.5009994506836,73.01000213623047 116.6449966430664,69.03700256347656 111.81700134277344,68.96499633789062 C106.98999786376953,68.89299774169922 103.01799774169922,72.74800109863281 102.94599914550781,77.57599639892578 C102.8740005493164,82.40299987792969 106.72899627685547,86.3759994506836 111.55599975585938,86.447998046875z"></path></g></g><g mask="url(#__lottie_element_377_2)" style="display: block;"><g transform="matrix(1,-0.000004416357114678249,0.000004416357114678249,1,289.999755859375,156.49945068359375)" opacity="1"><g opacity="1" transform="matrix(1,0,0,1,0,0)"><path fill="rgb(255,76,91)" fill-opacity="1" d=" M-123.3949966430664,115.51399993896484 C-102.47599792480469,115.51399993896484 -85.51699829101562,98.55599975585938 -85.51699829101562,77.63700103759766 C-85.51699829101562,56.71799850463867 -102.47599792480469,39.7599983215332 -123.3949966430664,39.7599983215332 C-144.31399536132812,39.7599983215332 -161.27200317382812,56.71799850463867 -161.27200317382812,77.63700103759766 C-161.27200317382812,98.55599975585938 -144.31399536132812,115.51399993896484 -123.3949966430664,115.51399993896484z"></path></g><g opacity="1" transform="matrix(1,0,0,1,0,0)"><path fill="rgb(50,33,72)" fill-opacity="1" d=" M-123.3949966430664,98.42900085449219 C-111.91200256347656,98.42900085449219 -102.60299682617188,89.12000274658203 -102.60299682617188,77.63600158691406 C-102.60299682617188,66.15299987792969 -111.91200256347656,56.84400177001953 -123.3949966430664,56.84400177001953 C-134.8780059814453,56.84400177001953 -144.18800354003906,66.15299987792969 -144.18800354003906,77.63600158691406 C-144.18800354003906,89.12000274658203 -134.8780059814453,98.42900085449219 -123.3949966430664,98.42900085449219z"></path></g><g opacity="1" transform="matrix(1,0,0,1,0,0)"><path stroke-linecap="butt" stroke-linejoin="miter" fill-opacity="0" stroke-miterlimit="10" stroke="rgb(255,255,255)" stroke-opacity="1" stroke-width="0.9" d=" M-123.3949966430664,86.37899780273438 C-118.56600189208984,86.37899780273438 -114.6510009765625,82.46499633789062 -114.6510009765625,77.63700103759766 C-114.6510009765625,72.80799865722656 -118.56600189208984,68.89399719238281 -123.3949966430664,68.89399719238281 C-128.22300720214844,68.89399719238281 -132.13699340820312,72.80799865722656 -132.13699340820312,77.63700103759766 C-132.13699340820312,82.46499633789062 -128.22300720214844,86.37899780273438 -123.3949966430664,86.37899780273438z"></path></g></g></g><g transform="matrix(1,-0.000004416357114678249,0.000004416357114678249,1,289.9996643066406,133.99945068359375)" opacity="1" style="display: block;"><g opacity="1" transform="matrix(1,0,0,1,0,0)"><path fill="rgb(255,76,91)" fill-opacity="1" d=" M-83.48999786376953,102.33999633789062 C-83.48999786376953,102.33999633789062 -163.3000030517578,102.33999633789062 -163.3000030517578,102.33999633789062 C-166.49000549316406,102.33999633789062 -169.0760040283203,104.9260025024414 -169.0760040283203,108.11699676513672 C-169.0760040283203,108.11699676513672 -169.0760040283203,109.80699920654297 -169.0760040283203,109.80699920654297 C-169.0760040283203,112.99800109863281 -166.49000549316406,115.58399963378906 -163.3000030517578,115.58399963378906 C-163.3000030517578,115.58399963378906 -83.48999786376953,115.58399963378906 -83.48999786376953,115.58399963378906 C-80.29900360107422,115.58399963378906 -77.71299743652344,112.99800109863281 -77.71299743652344,109.80699920654297 C-77.71299743652344,109.80699920654297 -77.71299743652344,108.11699676513672 -77.71299743652344,108.11699676513672 C-77.71299743652344,104.9260025024414 -80.29900360107422,102.33999633789062 -83.48999786376953,102.33999633789062z"></path></g><g opacity="1" transform="matrix(1,0,0,1,0,0)"><path stroke-linecap="butt" stroke-linejoin="miter" fill-opacity="0" stroke-miterlimit="10" stroke="rgb(50,33,72)" stroke-opacity="1" stroke-width="0.9" d=" M-96.37699890136719,102.33999633789062 C-96.37699890136719,102.33999633789062 -146.88999938964844,102.33999633789062 -146.88999938964844,102.33999633789062"></path></g></g><g mask="url(#__lottie_element_1592_2)" style="display: none;"><g transform="matrix(-0.9963693022727966,-0.08513656258583069,0.08513656258583069,-0.9963693022727966,-582.657958984375,384.87445068359375)" opacity="1"><g opacity="1" transform="matrix(1,0,0,1,0,0)"><path fill="rgb(255,255,255)" fill-opacity="1" d=" M-659.8040161132812,309.572998046875 C-647.8579711914062,309.572998046875 -638.1729736328125,299.8890075683594 -638.1729736328125,287.9429931640625 C-638.1729736328125,275.99700927734375 -647.8579711914062,266.31201171875 -659.8040161132812,266.31201171875 C-671.75,266.31201171875 -681.4340209960938,275.99700927734375 -681.4340209960938,287.9429931640625 C-681.4340209960938,299.8890075683594 -671.75,309.572998046875 -659.8040161132812,309.572998046875z"></path></g><g opacity="1" transform="matrix(1,0,0,1,0,0)"><path fill="rgb(255,255,255)" fill-opacity="1" d=" M-664.8679809570312,330.3210144042969 C-656.7269897460938,330.3210144042969 -650.1270141601562,323.72100830078125 -650.1270141601562,315.5790100097656 C-650.1270141601562,307.43798828125 -656.7269897460938,300.8380126953125 -664.8679809570312,300.8380126953125 C-673.010009765625,300.8380126953125 -679.6099853515625,307.43798828125 -679.6099853515625,315.5790100097656 C-679.6099853515625,323.72100830078125 -673.010009765625,330.3210144042969 -664.8679809570312,330.3210144042969z"></path></g><g opacity="1" transform="matrix(1,0,0,1,0,0)"><path fill="rgb(255,255,255)" fill-opacity="1" d=" M-686.7429809570312,317.82598876953125 C-676.0380249023438,317.82598876953125 -667.3599853515625,309.14801025390625 -667.3599853515625,298.4429931640625 C-667.3599853515625,287.7380065917969 -676.0380249023438,279.0589904785156 -686.7429809570312,279.0589904785156 C-697.447998046875,279.0589904785156 -706.1270141601562,287.7380065917969 -706.1270141601562,298.4429931640625 C-706.1270141601562,309.14801025390625 -697.447998046875,317.82598876953125 -686.7429809570312,317.82598876953125z"></path></g></g></g><g mask="url(#__lottie_element_1606_2)" style="display: none;"><g transform="matrix(0.9999776482582092,0.006687412969768047,-0.006687412969768047,0.9999776482582092,31.743505477905273,162.38917541503906)" opacity="1"><g opacity="1" transform="matrix(1,0,0,1,0,0)"><path fill="rgb(255,226,77)" fill-opacity="1" d=" M-0.0010000000474974513,-9.5 C-0.0010000000474974513,-9.5 3.3580000400543213,-3.359999895095825 3.3580000400543213,-3.359999895095825 C3.3580000400543213,-3.359999895095825 9.5,-0.0010000000474974513 9.5,-0.0010000000474974513 C9.5,-0.0010000000474974513 3.3580000400543213,3.3580000400543213 3.3580000400543213,3.3580000400543213 C3.3580000400543213,3.3580000400543213 -0.0010000000474974513,9.5 -0.0010000000474974513,9.5 C-0.0010000000474974513,9.5 -3.359999895095825,3.3580000400543213 -3.359999895095825,3.3580000400543213 C-3.359999895095825,3.3580000400543213 -9.5,-0.0010000000474974513 -9.5,-0.0010000000474974513 C-9.5,-0.0010000000474974513 -3.359999895095825,-3.359999895095825 -3.359999895095825,-3.359999895095825 C-3.359999895095825,-3.359999895095825 -0.0010000000474974513,-9.5 -0.0010000000474974513,-9.5z"></path></g></g></g><g mask="url(#__lottie_element_1599_2)" style="display: none;"><g transform="matrix(0.999998152256012,0.0019153814064338803,-0.0019153814064338803,0.999998152256012,15.728323936462402,134.3843231201172)" opacity="1"><g opacity="1" transform="matrix(1,0,0,1,0,0)"><path fill="rgb(255,76,91)" fill-opacity="1" d=" M-0.0010000000474974513,-8.5 C-0.0010000000474974513,-8.5 3.003999948501587,-3.00600004196167 3.003999948501587,-3.00600004196167 C3.003999948501587,-3.00600004196167 8.5,-0.0010000000474974513 8.5,-0.0010000000474974513 C8.5,-0.0010000000474974513 3.003999948501587,3.003999948501587 3.003999948501587,3.003999948501587 C3.003999948501587,3.003999948501587 -0.0010000000474974513,8.5 -0.0010000000474974513,8.5 C-0.0010000000474974513,8.5 -3.00600004196167,3.003999948501587 -3.00600004196167,3.003999948501587 C-3.00600004196167,3.003999948501587 -8.5,-0.0010000000474974513 -8.5,-0.0010000000474974513 C-8.5,-0.0010000000474974513 -3.00600004196167,-3.00600004196167 -3.00600004196167,-3.00600004196167 C-3.00600004196167,-3.00600004196167 -0.0010000000474974513,-8.5 -0.0010000000474974513,-8.5z"></path></g></g></g><g mask="url(#__lottie_element_1613_2)" style="display: none;"><g transform="matrix(0.9999980926513672,0.0019551797304302454,-0.0019551797304302454,0.9999980926513672,52.72821044921875,145.38427734375)" opacity="1"><g opacity="1" transform="matrix(1,0,0,1,0,0)"><path fill="rgb(144,211,255)" fill-opacity="1" d=" M0.0020000000949949026,-13.5 C0.0020000000949949026,-13.5 4.77400016784668,-4.77400016784668 4.77400016784668,-4.77400016784668 C4.77400016784668,-4.77400016784668 13.5,0.0020000000949949026 13.5,0.0020000000949949026 C13.5,0.0020000000949949026 4.77400016784668,4.77400016784668 4.77400016784668,4.77400016784668 C4.77400016784668,4.77400016784668 0.0020000000949949026,13.5 0.0020000000949949026,13.5 C0.0020000000949949026,13.5 -4.77400016784668,4.77400016784668 -4.77400016784668,4.77400016784668 C-4.77400016784668,4.77400016784668 -13.5,0.0020000000949949026 -13.5,0.0020000000949949026 C-13.5,0.0020000000949949026 -4.77400016784668,-4.77400016784668 -4.77400016784668,-4.77400016784668 C-4.77400016784668,-4.77400016784668 0.0020000000949949026,-13.5 0.0020000000949949026,-13.5z"></path></g></g></g></g></svg>